<svg id="图层_1" data-name="图层 1" xmlns="http://www.w3.org/2000/svg" viewBox="0 0 404.39 240.39"><defs><style>.cls-1,.cls-2,.cls-3{fill:none;stroke:aqua;}.cls-1{stroke-linecap:round;stroke-linejoin:round;}.cls-2,.cls-3{stroke-miterlimit:10;}.cls-2{stroke-width:2px;stroke-dasharray:0.5 2 0 0 0 0;}.cls-3{stroke-width:6px;}.cls-4{fill:aqua;}</style></defs><polygon class="cls-1" points="375.33 3 31.06 3 3 30.06 3 120.69 11 120.69 11 204.69 3 204.69 3 210.33 30.06 237.39 374.33 237.39 401.39 210.33 401.39 121.19 393.39 121.19 393.39 37.19 401.39 37.19 401.39 30.06 375.33 3"/><polyline class="cls-2" points="396.19 37.36 396.19 32.41 370.81 6.06 35.52 6.06 8.19 32.41 8.19 120.68"/><polyline class="cls-2" points="8.19 205.49 8.19 207.98 34.55 234.33 369.84 234.33 396.19 207.98 396.19 121.17"/><polyline class="cls-3" points="111.53 3 30.06 3 3 30.06 3 59.19"/><polyline class="cls-3" points="284.53 237.39 374.33 237.39 401.39 210.33 401.39 180.69"/><rect class="cls-4" x="0.85" y="124.19" width="6.29" height="77"/><rect class="cls-4" x="395.85" y="40.19" width="6.29" height="77"/><polyline class="cls-1" points="4.69 212.69 4.74 217.19 26.74 239.19"/><polyline class="cls-1" points="400.69 28.69 400.64 24.19 378.64 2.19"/></svg>