<svg id="图层_1" data-name="图层 1" xmlns="http://www.w3.org/2000/svg" viewBox="0 0 926.17 183"><defs><style>.cls-1,.cls-3{fill:none;stroke:#65a2ea;stroke-linecap:round;stroke-linejoin:round;}.cls-1{stroke-width:3px;}.cls-2{fill:#65a2ea;}.cls-3{stroke-width:7px;}</style></defs><polyline class="cls-1" points="782.89 159.5 59.83 159.5 59.83 23.5 88.15 23.5"/><polyline class="cls-1" points="132.33 23.5 865.83 23.5 865.83 159.5 830.25 159.5"/><path class="cls-2" d="M77.3,487,47.53,469.83a6.91,6.91,0,0,0-10.36,6v34.38a6.91,6.91,0,0,0,10.36,6L77.3,499A6.92,6.92,0,0,0,77.3,487Z" transform="translate(-37.17 -401.5)"/><path class="cls-2" d="M923.2,499.49,953,516.67a6.91,6.91,0,0,0,10.36-6V476.31a6.91,6.91,0,0,0-10.36-6L923.2,487.51A6.92,6.92,0,0,0,923.2,499.49Z" transform="translate(-37.17 -401.5)"/><polyline class="cls-3" points="39.83 112.5 39.83 179.5 885.83 179.5 885.83 112.5"/><polyline class="cls-3" points="885.83 70.5 885.83 3.5 39.83 3.5 39.83 70.5"/><line class="cls-1" x1="101.33" y1="24" x2="119.33" y2="24"/><line class="cls-1" x1="796.33" y1="159.5" x2="817.33" y2="159.5"/></svg>