<svg
        xmlns="http://www.w3.org/2000/svg"
        xmlns:xlink="http://www.w3.org/1999/xlink"
        width="2410.5px" height="64px">
    <defs>
        <linearGradient id="PSgrad_0" x1="0%" x2="99.939%" y1="0%" y2="3.49%">
            <stop offset="0%" stop-color="rgb(0,114,255)" stop-opacity="1" />
            <stop offset="49%" stop-color="rgb(0,234,255)" stop-opacity="1" />
            <stop offset="100%" stop-color="rgb(1,170,255)" stop-opacity="1" />
        </linearGradient>
        <linearGradient id="PSgrad_1" x1="0%" x2="100%" y1="0%" y2="0%">
            <stop offset="0%" stop-color="rgb(0,210,255)" stop-opacity="1" />
            <stop offset="100%" stop-color="rgb(41,104,232)" stop-opacity="1" />
        </linearGradient>

    </defs>
    <path fill-rule="evenodd"  stroke="rgb(33, 90, 255)" stroke-width="1px" stroke-linecap="butt" stroke-linejoin="miter" fill="none"
          d="M0.500,1.999 L693.499,1.999 L714.499,20.999 L798.499,20.999 L842.499,60.999 L1105.499,60.999 "/>
    <path fill-rule="evenodd"  fill="none"
          d="M734.499,25.999 L774.499,61.999 L836.499,61.999 "/>
    <path stroke="rgb(33, 90, 255)" stroke-width="1px" stroke-linecap="butt" stroke-linejoin="miter" fill="url(#PSgrad_0)"
          d="M734.499,25.999 L774.499,61.999 L836.499,61.999 "/>
    <path fill-rule="evenodd"  fill="rgb(33, 90, 255)"
          d="M776.499,27.999 L792.499,27.999 L824.499,56.999 L808.499,56.999 L776.499,27.999 Z"/>
    <path fill="url(#PSgrad_0)"
          d="M776.499,27.999 L792.499,27.999 L824.499,56.999 L808.499,56.999 L776.499,27.999 Z"/>
    <path fill-rule="evenodd"  fill="rgb(33, 90, 255)"
          d="M751.499,27.999 L767.499,27.999 L799.499,56.999 L783.499,56.999 L751.499,27.999 Z"/>
    <path fill="url(#PSgrad_0)"
          d="M751.499,27.999 L767.499,27.999 L799.499,56.999 L783.499,56.999 L751.499,27.999 Z"/>
    <path fill-rule="evenodd"  fill="none"
          d="M725.499,25.999 L765.499,61.999 "/>
    <path stroke="rgb(33, 90, 255)" stroke-width="1px" stroke-linecap="butt" stroke-linejoin="miter" fill="url(#PSgrad_0)"
          d="M725.499,25.999 L765.499,61.999 "/>
    <path fill-rule="evenodd"  stroke="rgb(33, 90, 255)" stroke-width="1px" stroke-linecap="butt" stroke-linejoin="miter" opacity="0.6" fill="none"
          d="M862.499,61.999 L806.699,10.999 L702.499,10.999 "/>
    <path fill-rule="evenodd"  opacity="0.2" fill="rgb(33, 90, 255)"
          d="M822.499,9.999 L912.499,9.999 L912.499,52.999 L870.499,52.999 L822.499,9.999 Z"/>
    <path fill-rule="evenodd"  stroke="rgb(33, 90, 255)" stroke-width="1px" stroke-linecap="butt" stroke-linejoin="miter" fill="none"
          d="M2409.499,3.999 L1716.499,3.999 L1695.499,22.999 L1611.499,22.999 L1567.499,62.999 L1308.499,62.999 "/>
    <path fill-rule="evenodd"  fill="none"
          d="M1675.499,26.999 L1635.499,62.999 L1573.499,62.999 "/>
    <path stroke="rgb(33, 90, 255)" stroke-width="1px" stroke-linecap="butt" stroke-linejoin="miter" fill="url(#PSgrad_0)"
          d="M1675.499,26.999 L1635.499,62.999 L1573.499,62.999 "/>
    <path fill-rule="evenodd"  fill="rgb(33, 90, 255)"
          d="M1633.499,27.999 L1617.499,27.999 L1585.499,56.999 L1601.499,56.999 L1633.499,27.999 Z"/>
    <path fill="url(#PSgrad_0)"
          d="M1633.499,27.999 L1617.499,27.999 L1585.499,56.999 L1601.499,56.999 L1633.499,27.999 Z"/>
    <path fill-rule="evenodd"  fill="rgb(33, 90, 255)"
          d="M1658.499,27.999 L1642.499,27.999 L1610.499,56.999 L1626.499,56.999 L1658.499,27.999 Z"/>
    <path fill="url(#PSgrad_0)"
          d="M1658.499,27.999 L1642.499,27.999 L1610.499,56.999 L1626.499,56.999 L1658.499,27.999 Z"/>
    <path fill-rule="evenodd"  fill="none"
          d="M1684.499,26.999 L1644.499,62.999 "/>
    <path stroke="rgb(33, 90, 255)" stroke-width="1px" stroke-linecap="butt" stroke-linejoin="miter" fill="url(#PSgrad_0)"
          d="M1684.499,26.999 L1644.499,62.999 "/>
    <path fill-rule="evenodd"  stroke="rgb(33, 90, 255)" stroke-width="1px" stroke-linecap="butt" stroke-linejoin="miter" opacity="0.6" fill="none"
          d="M1547.499,60.999 L1603.299,9.999 L1707.499,9.999 "/>
    <path fill-rule="evenodd"  opacity="0.2" fill="rgb(33, 90, 255)"
          d="M1587.499,11.999 L1497.499,11.999 L1497.499,54.999 L1539.499,54.999 L1587.499,11.999 Z"/>
    <path fill-rule="evenodd"  fill="rgb(0, 216, 255)"
          d="M836.499,62.999 L836.499,60.999 L1567.499,60.999 L1567.499,62.999 L836.499,62.999 "/>
    <path fill-rule="evenodd"  fill="rgb(0, 216, 255)"
          d="M836.499,62.999 L836.499,60.999 L1567.499,60.999 L1567.499,62.999 L836.499,62.999 "/>
    <path fill-rule="evenodd"  fill="url(#PSgrad_1)"
          d="M1776.499,0.0 L1910.499,0.0 C1912.156,0.0 1913.499,1.343 1913.499,2.999 C1913.499,4.656 1912.156,5.999 1910.499,5.999 L1776.499,5.999 C1774.843,5.999 1773.500,4.656 1773.500,2.999 C1773.500,1.343 1774.843,0.0 1776.499,0.0 Z"/>
    <path fill-rule="evenodd"  fill="url(#PSgrad_1)"
          d="M476.499,0.0 L610.499,0.0 C612.156,0.0 613.499,1.343 613.499,2.999 C613.499,4.656 612.156,5.999 610.499,5.999 L476.499,5.999 C474.843,5.999 473.499,4.656 473.499,2.999 C473.499,1.343 474.843,0.0 476.499,0.0 Z"/>
</svg>